<svg version="1.1" id="Layer_1" xmlns="http://www.w3.org/2000/svg" xmlns:xlink="http://www.w3.org/1999/xlink" x="0px" y="0px"
	 width="24" height="24" viewBox="0 0 2048 719" preserveAspectRatio="xMidYMid meet" enable-background="new 0 0 2048 719">
<path fill="#FEFEFE" opacity="1.000000" stroke="none" 
	d="
M1612.000000,720.000000 
	C1074.666748,720.000000 537.833496,720.000000 1.000216,720.000000 
	C1.000144,480.333466 1.000144,240.666946 1.000072,1.000313 
	C683.666443,1.000208 1366.332886,1.000208 2048.999512,1.000104 
	C2048.999512,240.666367 2048.999512,480.332733 2048.999756,719.999512 
	C1903.500000,720.000000 1758.000000,720.000000 1612.000000,720.000000 
M269.895111,688.980164 
	C268.695282,682.383728 264.313751,679.481934 258.040527,678.849854 
	C251.747345,678.215698 245.387955,678.008179 239.162125,676.980347 
	C221.940323,674.137146 211.626572,664.708618 209.075546,647.582214 
	C207.807251,639.067444 207.733017,629.656189 210.017349,621.458191 
	C218.812393,589.894470 228.278610,558.493713 238.456406,527.346497 
	C247.553024,499.508087 257.925690,472.086823 267.718933,444.475708 
	C283.020752,401.333710 298.343353,358.198975 313.591736,315.038086 
	C325.846252,280.351318 337.673096,245.508240 350.408966,211.000000 
	C354.159607,200.837524 359.729523,191.167755 365.669830,182.057343 
	C369.402863,176.332199 374.782928,176.667511 379.790070,181.491745 
	C382.872711,184.461823 385.952606,187.747025 387.953339,191.471161 
	C394.876892,204.358521 401.575958,217.380692 407.909485,230.568146 
	C425.213501,266.597961 442.659332,302.567383 459.346100,338.883667 
	C475.475525,373.986969 490.526917,409.584503 506.504456,444.759308 
	C510.688049,453.969543 510.736389,462.317963 507.241638,471.666260 
	C497.332367,498.172882 488.107361,524.934326 478.419556,551.524963 
	C468.270233,579.382263 458.060974,607.229126 442.851898,632.882263 
	C434.986420,646.149048 426.004028,658.434570 413.523956,667.876892 
	C403.463318,675.488464 392.219849,679.867798 379.871887,682.210999 
	C371.971100,683.710327 368.055542,689.706787 368.771149,697.044617 
	C369.398590,703.478149 374.096008,708.003601 382.032959,707.979797 
	C395.830811,707.938477 409.634338,707.222168 423.420959,706.508606 
	C452.522369,705.002197 481.599548,702.405945 510.713989,701.930542 
	C547.677856,701.326965 584.699829,701.465454 621.504089,706.295166 
	C629.664795,707.366150 633.935913,704.039551 635.765137,696.436401 
	C637.704834,688.374084 635.139771,683.076416 627.417969,680.126038 
	C621.513733,677.870178 615.434753,676.074280 609.447571,674.032349 
	C588.750427,666.973450 577.919983,652.062988 579.873230,630.345093 
	C581.102966,616.671143 583.755859,602.902771 587.658813,589.736572 
	C596.694580,559.255981 606.279846,528.907227 616.738525,498.886932 
	C631.805420,455.639038 647.840393,412.728302 663.471802,369.677185 
	C673.135376,343.062164 682.813904,316.452576 692.491211,289.842529 
	C702.167908,263.234344 711.563904,236.518036 721.729370,210.097809 
	C724.346985,203.294617 728.800293,196.930328 733.511963,191.283722 
	C737.376831,186.652069 743.023193,186.808899 747.249451,191.149551 
	C751.125793,195.130753 754.741943,199.769989 757.069153,204.772263 
	C762.258240,215.926193 766.602173,227.475113 771.234924,238.885635 
	C783.892578,270.061737 797.065430,301.042328 809.036438,332.480316 
	C827.768127,381.672913 845.902832,431.096893 863.851501,480.582062 
	C874.126099,508.909485 884.078857,537.379211 893.152283,566.108337 
	C900.022949,587.862732 901.903320,610.216431 895.066833,632.589417 
	C891.584778,643.984802 885.143677,653.277405 875.188293,659.908691 
	C862.549744,668.327148 848.362854,673.136353 833.844055,677.046448 
	C825.811462,679.209656 817.620789,680.822388 809.667358,683.231323 
	C803.030701,685.241455 800.811768,689.454102 801.721497,696.277893 
	C802.919739,705.266174 807.621460,709.786133 817.349121,709.625854 
	C829.493835,709.425781 841.619751,708.259277 853.761230,707.659546 
	C888.026978,705.967041 922.281738,703.803894 956.569214,702.885193 
	C982.076172,702.201721 1007.478149,704.704773 1032.573364,709.740295 
	C1037.130127,710.654602 1041.736084,710.357544 1044.603516,705.845093 
	C1047.535522,701.231140 1047.710083,696.234924 1044.789062,691.672791 
	C1043.142822,689.101685 1040.703735,686.807739 1038.141602,685.116333 
	C1035.410156,683.313110 1032.169800,682.210571 1029.052490,681.073853 
	C1012.020081,674.863281 996.877991,665.815063 985.004944,651.863037 
	C970.531433,634.855347 961.484314,614.802124 953.207703,594.382141 
	C931.117493,539.881531 909.171143,485.322510 887.182739,430.780548 
	C869.181641,386.128937 851.087280,341.514496 833.241943,296.800659 
	C810.334473,239.403336 787.950806,181.794983 764.727417,124.526558 
	C750.774658,90.119484 735.718567,56.158138 721.022888,22.054821 
	C714.997192,8.071373 698.609558,3.640701 688.337891,13.502426 
	C684.126648,17.545599 680.499939,22.739235 678.161926,28.088928 
	C671.562866,43.188530 665.834290,58.666523 659.645813,73.948074 
	C639.580322,123.496902 618.737244,172.745941 599.568237,222.638535 
	C580.342590,272.678558 562.798401,323.363983 544.416016,373.729645 
	C542.654968,378.554596 540.600342,383.377380 537.928467,387.739624 
	C534.151489,393.906067 528.012390,394.387268 523.578491,388.692200 
	C519.624451,383.613495 515.942627,378.084290 513.368896,372.215271 
	C506.350067,356.209381 500.289032,339.783844 493.286743,323.770233 
	C480.410339,294.323212 467.510101,264.875702 453.935242,235.747406 
	C431.147522,186.850739 407.932922,138.151718 384.670227,89.478371 
	C375.700775,70.711227 366.362518,52.107948 356.667999,33.706238 
	C353.140594,27.010675 348.685394,20.575827 343.599640,14.979809 
	C334.741791,5.233249 321.696838,6.027024 314.007507,16.708757 
	C310.177704,22.028976 307.400024,28.243530 304.920074,34.366863 
	C301.051453,43.918972 298.222565,53.895348 294.287292,63.416767 
	C274.515167,111.255775 254.112015,158.838074 234.745636,206.839401 
	C219.241943,245.266708 204.530914,284.026398 190.156219,322.893066 
	C175.607971,362.228912 161.936325,401.888580 147.823715,441.386047 
	C133.265518,482.130524 119.108078,523.027100 103.875801,563.518738 
	C93.808846,590.279602 84.739342,617.608398 69.830658,642.261475 
	C58.619675,660.800049 45.093948,676.691772 21.345274,679.240540 
	C15.012881,679.920166 11.669470,684.608765 11.250057,691.054565 
	C10.630699,700.573364 16.781893,705.938904 28.378609,705.447693 
	C56.845425,704.241821 85.303650,702.833740 113.766121,701.524231 
	C146.743546,700.006958 179.714752,699.366455 212.691452,701.710754 
	C227.305084,702.749695 241.938141,703.863831 256.575653,704.092529 
	C265.928436,704.238647 269.872284,699.300171 269.895111,688.980164 
M1514.712280,373.499969 
	C1514.707886,440.832245 1514.787476,508.164673 1514.646606,575.496643 
	C1514.605713,595.045166 1512.956177,614.451721 1506.225220,633.061340 
	C1497.451050,657.319580 1481.341309,673.207642 1455.278442,677.881348 
	C1452.563110,678.368286 1449.841309,679.510864 1447.437866,680.896240 
	C1442.967163,683.473206 1440.902954,688.863098 1442.187256,694.388306 
	C1443.342651,699.358765 1446.418457,702.966980 1451.693604,703.289124 
	C1458.649780,703.714050 1465.678711,703.905273 1472.621582,703.416870 
	C1497.715576,701.651855 1522.754639,698.816101 1547.872559,697.733337 
	C1619.026123,694.665894 1690.166870,697.286133 1761.290283,699.536499 
	C1793.306396,700.549438 1825.268677,701.239563 1857.037720,696.021240 
	C1885.178589,691.398804 1912.221924,683.311218 1937.314941,669.580566 
	C1982.218994,645.009460 2014.485474,609.502808 2030.822632,560.382690 
	C2040.760132,530.504272 2043.187134,499.756958 2040.937134,468.614777 
	C2038.614136,436.466156 2028.170532,407.157593 2008.046509,381.648590 
	C1984.441772,351.727295 1953.371826,334.045441 1916.459717,325.981964 
	C1909.468628,324.454773 1902.296021,323.368958 1895.626343,320.932190 
	C1892.541504,319.805084 1889.076050,316.225037 1888.405640,313.179810 
	C1887.937988,311.055176 1891.377441,307.013824 1894.027954,305.460907 
	C1901.476196,301.097107 1909.434326,297.607727 1917.164307,293.719666 
	C1936.703369,283.891724 1953.762695,270.885620 1965.569946,252.296539 
	C1990.698120,212.735352 1991.957642,170.155304 1978.095215,126.903442 
	C1967.261230,93.100754 1943.505981,68.946358 1914.075684,50.176262 
	C1874.250244,24.776241 1829.777466,14.537555 1783.385864,11.247314 
	C1741.023682,8.242840 1698.816284,11.826746 1656.631226,15.298213 
	C1626.419922,17.784330 1596.230957,20.599272 1565.991211,22.670048 
	C1525.679443,25.430552 1485.378418,23.676682 1445.099854,21.291380 
	C1434.125366,20.641470 1423.132202,20.023788 1412.144775,19.971865 
	C1404.019531,19.933468 1399.411621,24.878771 1399.092896,32.694645 
	C1398.701904,42.281498 1402.125610,46.848042 1410.802612,48.104347 
	C1419.861084,49.415886 1428.935181,50.618362 1438.001465,51.876911 
	C1474.765747,56.980415 1500.966675,79.714417 1509.152222,115.494377 
	C1512.469604,129.994492 1514.342407,145.136642 1514.456055,160.005096 
	C1514.997070,230.833237 1514.706665,301.667725 1514.712280,373.499969 
M1349.500488,701.198914 
	C1355.331055,701.101746 1361.229736,701.517029 1366.971558,700.753052 
	C1371.993652,700.084900 1377.038574,698.556335 1381.708984,696.556519 
	C1386.761353,694.393005 1388.532593,689.412476 1387.184570,684.067566 
	C1385.624146,677.880127 1380.403320,673.794128 1372.768555,673.109497 
	C1364.159058,672.337524 1355.491821,672.093445 1346.919678,671.046631 
	C1328.530640,668.800964 1312.296997,661.630798 1299.080933,648.426941 
	C1286.949097,636.306274 1278.733276,621.489380 1276.251343,604.827515 
	C1272.878662,582.186890 1270.129028,559.209045 1270.037109,536.364075 
	C1269.476196,397.041565 1269.692017,257.715668 1269.833496,118.391129 
	C1269.844971,107.111198 1270.945190,95.803123 1272.063477,84.560242 
	C1273.878296,66.314087 1283.427856,53.918736 1301.267212,48.768364 
	C1311.636108,45.774776 1322.269287,43.707424 1332.686035,40.865562 
	C1339.408936,39.031437 1341.602295,34.420212 1340.857056,25.432039 
	C1340.368286,19.534929 1337.060791,15.621421 1330.633789,15.122586 
	C1323.046143,14.533667 1315.364990,14.547792 1307.756714,14.934978 
	C1282.495972,16.220478 1257.198120,17.198380 1232.010376,19.393772 
	C1196.150269,22.519388 1160.292847,25.368893 1124.288208,24.069620 
	C1108.374634,23.495361 1092.505981,21.516914 1076.635010,19.987305 
	C1068.371338,19.190866 1060.165894,17.564524 1051.894653,17.194908 
	C1049.062134,17.068331 1045.154419,18.869907 1043.389648,21.098497 
	C1037.938354,27.982344 1040.658325,39.396820 1048.759277,42.689781 
	C1055.774048,45.541191 1063.365723,47.038239 1070.772827,48.845741 
	C1084.958862,52.307510 1099.530884,54.556137 1113.328857,59.151413 
	C1132.336426,65.481667 1145.556030,78.691345 1149.874512,98.734512 
	C1152.557617,111.187645 1154.824219,124.035614 1154.845703,136.710495 
	C1155.098389,285.367096 1154.952026,434.024597 1154.683350,582.681396 
	C1154.662109,594.449219 1153.463013,606.283447 1151.893799,617.963562 
	C1149.628662,634.823181 1143.477295,650.124512 1128.520996,659.754333 
	C1119.482422,665.573914 1109.351929,669.669067 1099.995972,675.034241 
	C1094.000977,678.472107 1088.472046,682.741943 1082.867188,686.821289 
	C1081.993286,687.457336 1081.358521,689.093262 1081.416260,690.225891 
	C1081.724365,696.275024 1086.727539,701.947632 1092.949219,701.998962 
	C1100.714966,702.063110 1108.530029,701.287415 1116.253418,700.314880 
	C1133.895630,698.093384 1151.434448,694.243408 1169.125977,693.413879 
	C1194.705322,692.214661 1220.384888,692.897339 1246.016724,693.203369 
	C1256.145630,693.324280 1266.265137,694.537170 1276.381592,695.344360 
	C1300.423706,697.262634 1324.461670,699.235596 1349.500488,701.198914 
z"/>
<path fill="#2E3181" opacity="1.000000" stroke="none" 
	d="
M269.937622,689.390381 
	C269.872284,699.300171 265.928436,704.238647 256.575653,704.092529 
	C241.938141,703.863831 227.305084,702.749695 212.691452,701.710754 
	C179.714752,699.366455 146.743546,700.006958 113.766121,701.524231 
	C85.303650,702.833740 56.845425,704.241821 28.378609,705.447693 
	C16.781893,705.938904 10.630699,700.573364 11.250057,691.054565 
	C11.669470,684.608765 15.012881,679.920166 21.345274,679.240540 
	C45.093948,676.691772 58.619675,660.800049 69.830658,642.261475 
	C84.739342,617.608398 93.808846,590.279602 103.875801,563.518738 
	C119.108078,523.027100 133.265518,482.130524 147.823715,441.386047 
	C161.936325,401.888580 175.607971,362.228912 190.156219,322.893066 
	C204.530914,284.026398 219.241943,245.266708 234.745636,206.839401 
	C254.112015,158.838074 274.515167,111.255775 294.287292,63.416767 
	C298.222565,53.895348 301.051453,43.918972 304.920074,34.366863 
	C307.400024,28.243530 310.177704,22.028976 314.007507,16.708757 
	C321.696838,6.027024 334.741791,5.233249 343.599640,14.979809 
	C348.685394,20.575827 353.140594,27.010675 356.667999,33.706238 
	C366.362518,52.107948 375.700775,70.711227 384.670227,89.478371 
	C407.932922,138.151718 431.147522,186.850739 453.935242,235.747406 
	C467.510101,264.875702 480.410339,294.323212 493.286743,323.770233 
	C500.289032,339.783844 506.350067,356.209381 513.368896,372.215271 
	C515.942627,378.084290 519.624451,383.613495 523.578491,388.692200 
	C528.012390,394.387268 534.151489,393.906067 537.928467,387.739624 
	C540.600342,383.377380 542.654968,378.554596 544.416016,373.729645 
	C562.798401,323.363983 580.342590,272.678558 599.568237,222.638535 
	C618.737244,172.745941 639.580322,123.496902 659.645813,73.948074 
	C665.834290,58.666523 671.562866,43.188530 678.161926,28.088928 
	C680.499939,22.739235 684.126648,17.545599 688.337891,13.502426 
	C698.609558,3.640701 714.997192,8.071373 721.022888,22.054821 
	C735.718567,56.158138 750.774658,90.119484 764.727417,124.526558 
	C787.950806,181.794983 810.334473,239.403336 833.241943,296.800659 
	C851.087280,341.514496 869.181641,386.128937 887.182739,430.780548 
	C909.171143,485.322510 931.117493,539.881531 953.207703,594.382141 
	C961.484314,614.802124 970.531433,634.855347 985.004944,651.863037 
	C996.877991,665.815063 1012.020081,674.863281 1029.052490,681.073853 
	C1032.169800,682.210571 1035.410156,683.313110 1038.141602,685.116333 
	C1040.703735,686.807739 1043.142822,689.101685 1044.789062,691.672791 
	C1047.710083,696.234924 1047.535522,701.231140 1044.603516,705.845093 
	C1041.736084,710.357544 1037.130127,710.654602 1032.573364,709.740295 
	C1007.478149,704.704773 982.076172,702.201721 956.569214,702.885193 
	C922.281738,703.803894 888.026978,705.967041 853.761230,707.659546 
	C841.619751,708.259277 829.493835,709.425781 817.349121,709.625854 
	C807.621460,709.786133 802.919739,705.266174 801.721497,696.277893 
	C800.811768,689.454102 803.030701,685.241455 809.667358,683.231323 
	C817.620789,680.822388 825.811462,679.209656 833.844055,677.046448 
	C848.362854,673.136353 862.549744,668.327148 875.188293,659.908691 
	C885.143677,653.277405 891.584778,643.984802 895.066833,632.589417 
	C901.903320,610.216431 900.022949,587.862732 893.152283,566.108337 
	C884.078857,537.379211 874.126099,508.909485 863.851501,480.582062 
	C845.902832,431.096893 827.768127,381.672913 809.036438,332.480316 
	C797.065430,301.042328 783.892578,270.061737 771.234924,238.885635 
	C766.602173,227.475113 762.258240,215.926193 757.069153,204.772263 
	C754.741943,199.769989 751.125793,195.130753 747.249451,191.149551 
	C743.023193,186.808899 737.376831,186.652069 733.511963,191.283722 
	C728.800293,196.930328 724.346985,203.294617 721.729370,210.097809 
	C711.563904,236.518036 702.167908,263.234344 692.491211,289.842529 
	C682.813904,316.452576 673.135376,343.062164 663.471802,369.677185 
	C647.840393,412.728302 631.805420,455.639038 616.738525,498.886932 
	C606.279846,528.907227 596.694580,559.255981 587.658813,589.736572 
	C583.755859,602.902771 581.102966,616.671143 579.873230,630.345093 
	C577.919983,652.062988 588.750427,666.973450 609.447571,674.032349 
	C615.434753,676.074280 621.513733,677.870178 627.417969,680.126038 
	C635.139771,683.076416 637.704834,688.374084 635.765137,696.436401 
	C633.935913,704.039551 629.664795,707.366150 621.504089,706.295166 
	C584.699829,701.465454 547.677856,701.326965 510.713989,701.930542 
	C481.599548,702.405945 452.522369,705.002197 423.420959,706.508606 
	C409.634338,707.222168 395.830811,707.938477 382.032959,707.979797 
	C374.096008,708.003601 369.398590,703.478149 368.771149,697.044617 
	C368.055542,689.706787 371.971100,683.710327 379.871887,682.210999 
	C392.219849,679.867798 403.463318,675.488464 413.523956,667.876892 
	C426.004028,658.434570 434.986420,646.149048 442.851898,632.882263 
	C458.060974,607.229126 468.270233,579.382263 478.419556,551.524963 
	C488.107361,524.934326 497.332367,498.172882 507.241638,471.666260 
	C510.736389,462.317963 510.688049,453.969543 506.504456,444.759308 
	C490.526917,409.584503 475.475525,373.986969 459.346100,338.883667 
	C442.659332,302.567383 425.213501,266.597961 407.909485,230.568146 
	C401.575958,217.380692 394.876892,204.358521 387.953339,191.471161 
	C385.952606,187.747025 382.872711,184.461823 379.790070,181.491745 
	C374.782928,176.667511 369.402863,176.332199 365.669830,182.057343 
	C359.729523,191.167755 354.159607,200.837524 350.408966,211.000000 
	C337.673096,245.508240 325.846252,280.351318 313.591736,315.038086 
	C298.343353,358.198975 283.020752,401.333710 267.718933,444.475708 
	C257.925690,472.086823 247.553024,499.508087 238.456406,527.346497 
	C228.278610,558.493713 218.812393,589.894470 210.017349,621.458191 
	C207.733017,629.656189 207.807251,639.067444 209.075546,647.582214 
	C211.626572,664.708618 221.940323,674.137146 239.162125,676.980347 
	C245.387955,678.008179 251.747345,678.215698 258.040527,678.849854 
	C264.313751,679.481934 268.695282,682.383728 269.937622,689.390381 
z"/>
<path fill="#9D1C3A" opacity="1.000000" stroke="none" 
	d="
M1514.712158,372.999939 
	C1514.706665,301.667725 1514.997070,230.833237 1514.456055,160.005096 
	C1514.342407,145.136642 1512.469604,129.994492 1509.152222,115.494377 
	C1500.966675,79.714417 1474.765747,56.980415 1438.001465,51.876911 
	C1428.935181,50.618362 1419.861084,49.415886 1410.802612,48.104347 
	C1402.125610,46.848042 1398.701904,42.281498 1399.092896,32.694645 
	C1399.411621,24.878771 1404.019531,19.933468 1412.144775,19.971865 
	C1423.132202,20.023788 1434.125366,20.641470 1445.099854,21.291380 
	C1485.378418,23.676682 1525.679443,25.430552 1565.991211,22.670048 
	C1596.230957,20.599272 1626.419922,17.784330 1656.631226,15.298213 
	C1698.816284,11.826746 1741.023682,8.242840 1783.385864,11.247314 
	C1829.777466,14.537555 1874.250244,24.776241 1914.075684,50.176262 
	C1943.505981,68.946358 1967.261230,93.100754 1978.095215,126.903442 
	C1991.957642,170.155304 1990.698120,212.735352 1965.569946,252.296539 
	C1953.762695,270.885620 1936.703369,283.891724 1917.164307,293.719666 
	C1909.434326,297.607727 1901.476196,301.097107 1894.027954,305.460907 
	C1891.377441,307.013824 1887.937988,311.055176 1888.405640,313.179810 
	C1889.076050,316.225037 1892.541504,319.805084 1895.626343,320.932190 
	C1902.296021,323.368958 1909.468628,324.454773 1916.459717,325.981964 
	C1953.371826,334.045441 1984.441772,351.727295 2008.046509,381.648590 
	C2028.170532,407.157593 2038.614136,436.466156 2040.937134,468.614777 
	C2043.187134,499.756958 2040.760132,530.504272 2030.822632,560.382690 
	C2014.485474,609.502808 1982.218994,645.009460 1937.314941,669.580566 
	C1912.221924,683.311218 1885.178589,691.398804 1857.037720,696.021240 
	C1825.268677,701.239563 1793.306396,700.549438 1761.290283,699.536499 
	C1690.166870,697.286133 1619.026123,694.665894 1547.872559,697.733337 
	C1522.754639,698.816101 1497.715576,701.651855 1472.621582,703.416870 
	C1465.678711,703.905273 1458.649780,703.714050 1451.693604,703.289124 
	C1446.418457,702.966980 1443.342651,699.358765 1442.187256,694.388306 
	C1440.902954,688.863098 1442.967163,683.473206 1447.437866,680.896240 
	C1449.841309,679.510864 1452.563110,678.368286 1455.278442,677.881348 
	C1481.341309,673.207642 1497.451050,657.319580 1506.225220,633.061340 
	C1512.956177,614.451721 1514.605713,595.045166 1514.646606,575.496643 
	C1514.787476,508.164673 1514.707886,440.832245 1514.712158,372.999939 
M1629.819580,425.415497 
	C1628.547974,482.406433 1628.069458,539.382324 1634.343628,596.166077 
	C1636.545410,616.092773 1644.767578,632.861450 1661.408325,644.850281 
	C1680.520508,658.619690 1702.660034,663.570129 1725.425659,664.721680 
	C1745.324951,665.728210 1765.401245,665.110779 1785.299316,663.749695 
	C1805.768188,662.349609 1825.714233,657.650574 1844.932129,650.010376 
	C1878.774170,636.556458 1900.131592,611.288635 1912.907104,578.192993 
	C1925.829956,544.715393 1927.295532,510.110565 1921.631958,474.911163 
	C1917.956665,452.069580 1909.729370,431.245209 1895.360229,413.090271 
	C1877.624634,390.681427 1853.890991,377.431244 1826.830078,369.706635 
	C1790.411011,359.310730 1753.069336,354.737457 1715.350708,353.317871 
	C1699.235962,352.711395 1682.973755,352.530670 1666.945557,353.990784 
	C1646.595093,355.844696 1637.413574,364.681976 1633.897705,384.731903 
	C1631.605469,397.804474 1631.150024,411.199127 1629.819580,425.415497 
M1658.332153,52.737957 
	C1646.365967,56.742863 1637.996338,64.946266 1635.095337,76.905029 
	C1632.059937,89.418327 1629.648804,102.414047 1629.478149,115.232368 
	C1628.841309,163.030777 1629.213867,210.842941 1629.277710,258.649872 
	C1629.284180,263.467468 1629.528564,268.310638 1630.063232,273.097198 
	C1632.562378,295.465637 1642.512085,306.505310 1664.553589,311.138763 
	C1670.072021,312.298828 1675.750366,313.107025 1681.378296,313.266296 
	C1707.184326,313.996490 1733.005371,315.050537 1758.807373,314.762085 
	C1775.047241,314.580566 1791.604736,313.856567 1807.420166,310.527679 
	C1843.012085,303.036224 1865.529175,280.828705 1873.402222,245.000366 
	C1878.167969,223.312454 1877.927368,201.384567 1874.351074,179.450531 
	C1865.951172,127.931725 1838.692749,89.875961 1792.710815,65.419678 
	C1767.189453,51.845661 1739.423950,46.863693 1710.811768,46.294052 
	C1693.319824,45.945805 1675.824463,46.357956 1658.332153,52.737957 
z"/>
<path fill="#EEBD33" opacity="1.000000" stroke="none" 
	d="
M1349.000854,701.192627 
	C1324.461670,699.235596 1300.423706,697.262634 1276.381592,695.344360 
	C1266.265137,694.537170 1256.145630,693.324280 1246.016724,693.203369 
	C1220.384888,692.897339 1194.705322,692.214661 1169.125977,693.413879 
	C1151.434448,694.243408 1133.895630,698.093384 1116.253418,700.314880 
	C1108.530029,701.287415 1100.714966,702.063110 1092.949219,701.998962 
	C1086.727539,701.947632 1081.724365,696.275024 1081.416260,690.225891 
	C1081.358521,689.093262 1081.993286,687.457336 1082.867188,686.821289 
	C1088.472046,682.741943 1094.000977,678.472107 1099.995972,675.034241 
	C1109.351929,669.669067 1119.482422,665.573914 1128.520996,659.754333 
	C1143.477295,650.124512 1149.628662,634.823181 1151.893799,617.963562 
	C1153.463013,606.283447 1154.662109,594.449219 1154.683350,582.681396 
	C1154.952026,434.024597 1155.098389,285.367096 1154.845703,136.710495 
	C1154.824219,124.035614 1152.557617,111.187645 1149.874512,98.734512 
	C1145.556030,78.691345 1132.336426,65.481667 1113.328857,59.151413 
	C1099.530884,54.556137 1084.958862,52.307510 1070.772827,48.845741 
	C1063.365723,47.038239 1055.774048,45.541191 1048.759277,42.689781 
	C1040.658325,39.396820 1037.938354,27.982344 1043.389648,21.098497 
	C1045.154419,18.869907 1049.062134,17.068331 1051.894653,17.194908 
	C1060.165894,17.564524 1068.371338,19.190866 1076.635010,19.987305 
	C1092.505981,21.516914 1108.374634,23.495361 1124.288208,24.069620 
	C1160.292847,25.368893 1196.150269,22.519388 1232.010376,19.393772 
	C1257.198120,17.198380 1282.495972,16.220478 1307.756714,14.934978 
	C1315.364990,14.547792 1323.046143,14.533667 1330.633789,15.122586 
	C1337.060791,15.621421 1340.368286,19.534929 1340.857056,25.432039 
	C1341.602295,34.420212 1339.408936,39.031437 1332.686035,40.865562 
	C1322.269287,43.707424 1311.636108,45.774776 1301.267212,48.768364 
	C1283.427856,53.918736 1273.878296,66.314087 1272.063477,84.560242 
	C1270.945190,95.803123 1269.844971,107.111198 1269.833496,118.391129 
	C1269.692017,257.715668 1269.476196,397.041565 1270.037109,536.364075 
	C1270.129028,559.209045 1272.878662,582.186890 1276.251343,604.827515 
	C1278.733276,621.489380 1286.949097,636.306274 1299.080933,648.426941 
	C1312.296997,661.630798 1328.530640,668.800964 1346.919678,671.046631 
	C1355.491821,672.093445 1364.159058,672.337524 1372.768555,673.109497 
	C1380.403320,673.794128 1385.624146,677.880127 1387.184570,684.067566 
	C1388.532593,689.412476 1386.761353,694.393005 1381.708984,696.556519 
	C1377.038574,698.556335 1371.993652,700.084900 1366.971558,700.753052 
	C1361.229736,701.517029 1355.331055,701.101746 1349.000854,701.192627 
z"/>
<path fill="#FFFEFE" opacity="1.000000" stroke="none" 
	d="
M1629.845703,424.932495 
	C1631.150024,411.199127 1631.605469,397.804474 1633.897705,384.731903 
	C1637.413574,364.681976 1646.595093,355.844696 1666.945557,353.990784 
	C1682.973755,352.530670 1699.235962,352.711395 1715.350708,353.317871 
	C1753.069336,354.737457 1790.411011,359.310730 1826.830078,369.706635 
	C1853.890991,377.431244 1877.624634,390.681427 1895.360229,413.090271 
	C1909.729370,431.245209 1917.956665,452.069580 1921.631958,474.911163 
	C1927.295532,510.110565 1925.829956,544.715393 1912.907104,578.192993 
	C1900.131592,611.288635 1878.774170,636.556458 1844.932129,650.010376 
	C1825.714233,657.650574 1805.768188,662.349609 1785.299316,663.749695 
	C1765.401245,665.110779 1745.324951,665.728210 1725.425659,664.721680 
	C1702.660034,663.570129 1680.520508,658.619690 1661.408325,644.850281 
	C1644.767578,632.861450 1636.545410,616.092773 1634.343628,596.166077 
	C1628.069458,539.382324 1628.547974,482.406433 1629.845703,424.932495 
z"/>
<path fill="#FFFEFE" opacity="1.000000" stroke="none" 
	d="
M1658.691895,52.587631 
	C1675.824463,46.357956 1693.319824,45.945805 1710.811768,46.294052 
	C1739.423950,46.863693 1767.189453,51.845661 1792.710815,65.419678 
	C1838.692749,89.875961 1865.951172,127.931725 1874.351074,179.450531 
	C1877.927368,201.384567 1878.167969,223.312454 1873.402222,245.000366 
	C1865.529175,280.828705 1843.012085,303.036224 1807.420166,310.527679 
	C1791.604736,313.856567 1775.047241,314.580566 1758.807373,314.762085 
	C1733.005371,315.050537 1707.184326,313.996490 1681.378296,313.266296 
	C1675.750366,313.107025 1670.072021,312.298828 1664.553589,311.138763 
	C1642.512085,306.505310 1632.562378,295.465637 1630.063232,273.097198 
	C1629.528564,268.310638 1629.284180,263.467468 1629.277710,258.649872 
	C1629.213867,210.842941 1628.841309,163.030777 1629.478149,115.232368 
	C1629.648804,102.414047 1632.059937,89.418327 1635.095337,76.905029 
	C1637.996338,64.946266 1646.365967,56.742863 1658.691895,52.587631 
z"/>
</svg>