<svg
  xmlns="http://www.w3.org/2000/svg"
  width="24"
  height="24"
  viewBox="0 0 100 100">
  <circle stroke="none" fill="#FFFFFF" r="48%" cx="50%" cy="50%"></circle>
  <g transform="translate(50 50) scale(0.69 0.69) rotate(0) translate(-50 -50)" style="fill:#000000">
    <path d="M75.792,56.65c-0.308,2.329-0.83,4.568-2.49,6.323c-0.255,0.27-0.52,0.472-0.77,0.632c-0.562-0.471-1.088-1.214-1.515-1.841
      c-3.529-5.176-4.301-12.838-5.173-18.86C64.253,31.9,63.648,20.637,63.682,9.518c0.014-4.354-9.807-2.359-9.832,1.121
      c-0.059,8.233-0.857,16.523-2.188,24.642c-1,6.105-2.371,12.354-4.927,18.016c-1.015,2.249-2.277,4.506-3.979,6.307
      c-0.417,0.442-1.524,1.313-1.626,1.365c-0.787,0.394-0.152,0.208-0.984,0.186c-4.212-0.115-7.263-5.687-8.795-8.964
      c-2.634-5.637-3.967-11.892-5.009-17.99c-1.362-7.967-2.149-17.232-2.158-24.681c-0.005-4.359-9.832-2.351-9.832,1.121
      c0,26.614,0,53.229,0,79.843c0,4.359,9.832,2.351,9.832-1.12c0-9.805,0-19.61,0-29.416c2.146,2.991,4.893,5.328,8.452,6.447
      c11.812,3.714,20.125-5.512,24.334-15.247c0.137,0.71,0.276,1.419,0.425,2.126c1.253,5.955,3.179,14.274,9.763,16.341
      c8.634,2.71,17.445-6.343,18.466-14.082C86.174,51.36,76.263,53.083,75.792,56.65z">
    </path>
  </g>
</svg>